<svg width="487" height="106" viewBox="0 0 487 106" fill="none" xmlns="http://www.w3.org/2000/svg">
<path d="M0 59.0996C0 44.1996 9.09999 33.0996 22.4 33.0996C30.1 33.0996 36.6 37.6996 38.8 44.4996V34.4996H50.4V82.2996C50.4 97.1996 40.6 105.6 26.3 105.6C13.5 105.6 4.79999 99.3996 3.29999 88.8996H15.6C16.6 94.1996 20.3 97.0996 26.3 97.0996C35.2 97.0996 38.6 91.1996 38.6 80.2996V73.5996C36.6 79.3996 30.5 84.6996 22.4 84.6996C9.09999 84.6996 0 73.8996 0 59.0996ZM25.5 42.1996C17.5 42.1996 12.1 48.9996 12.1 59.0996C12.1 69.1996 17.5 75.5996 25.5 75.5996C33.5 75.5996 39.1 68.9996 39.1 58.9996C39.1 48.9996 33.7 42.1996 25.5 42.1996Z" fill="#0E3A3B"/>
<path d="M89.3 44.4002C80.6 44.4002 75.8 47.8002 75.8 57.8002V85.7002H64V34.5002H75.7V45.2002C78.2 36.8002 83.5 33.7002 91 33.7002H93.4V44.4002H89.3Z" fill="#0E3A3B"/>
<path d="M147.5 70.2996C144.8 80.0996 135.9 86.9996 123.4 86.9996C107.6 86.9996 97.5 75.5996 97.5 60.0996C97.5 44.5996 107.8 33.0996 123.2 33.0996C139.9 33.0996 148.5 44.9996 148.5 61.9996V63.7996H109.9C110.4 72.0996 115 78.5996 123.4 78.5996C129.7 78.5996 133.6 74.6996 134.9 70.2996H147.5ZM109.9 54.7996H136.1C135.4 46.9996 130.6 41.4996 123.2 41.4996C115.8 41.4996 111 47.0996 109.9 54.7996Z" fill="#0E3A3B"/>
<path d="M205.9 70.2996C203.2 80.0996 194.3 86.9996 181.8 86.9996C166 86.9996 155.9 75.5996 155.9 60.0996C155.9 44.5996 166.2 33.0996 181.6 33.0996C198.3 33.0996 206.9 44.9996 206.9 61.9996V63.7996H168.3C168.8 72.0996 173.4 78.5996 181.8 78.5996C188.1 78.5996 192 74.6996 193.3 70.2996H205.9ZM168.3 54.7996H194.5C193.8 46.9996 189 41.4996 181.6 41.4996C174.2 41.4996 169.4 47.0996 168.3 54.7996Z" fill="#0E3A3B"/>
<path d="M229.1 44.9996C231.2 36.5996 238.5 33.0996 245 33.0996C257.5 33.0996 262.8 41.2996 262.8 52.7996V85.6996H251V53.4996C251 46.3996 248.1 42.7996 242.2 42.7996C234.7 42.7996 229.2 47.9996 229.2 58.3996V85.6996H217.4V34.4996H229.1V44.9996Z" fill="#0E3A3B"/>
<path d="M301.7 36.7V46H291.8V85.7H280V46H269.9V36.7H281C275 35.5 271.8 30.4 271.8 26.3C271.8 18.3 278.7 14 286.7 14H302.7V23.9H288.7C283.7 23.9 281.1 25.9 281.1 29.7C281.1 33.9 284.7 36.7 289.9 36.7H301.7ZM322 14V85.7H310.2V14H322Z" fill="#0E3A3B"/>
<path d="M369.4 77V74.5C366.6 82.6 360.1 87 353.1 87C342.2 87 335.4 80.1 335.4 67.2V34.5H347.2V66.7C347.2 73.8 350.2 77.8 356.7 77.8C363.9 77.8 368.7 71.9 368.7 61.1V34.5H380.5V74.3C380.5 79.1 381.1 83 382.2 85.7H370.6C369.8 83.9 369.4 81.4 369.4 77Z" fill="#0E3A3B"/>
<path d="M407.099 59.7L389.199 34.5H402.999L413.799 51.4L424.599 34.5H438.499L420.099 59.8C424.999 69.3 431.199 74.6 438.199 75.2V87.1C429.099 87.1 419.899 80.4 413.499 68.8L402.999 85.7H389.199L407.099 59.7Z" fill="#0E3A3B"/>
<path d="M475.6 12.1C481.5 12.2 486.4 17.2 486.4 23.3C486.4 29.4 481.5 34.5 475.6 34.5H465.7V39.7C465.7 42.4 463.7 44.6 461 44.6C458.3 44.6 456.3 42.3 456.3 39.7V32.8C450.8 30 447 24.2 447 17.4V17.1C447 7.59999 454.4 0 463.5 0H473.8C476.5 0 478.5 2.29999 478.5 4.89999C478.5 7.49999 476.4 9.8 473.8 9.8H463.5C459.6 9.8 456.4 13.1 456.4 17.1V17.4C456.4 18.9 456.8 20.3 457.6 21.4C459.9 16 465.2 12.1 471.3 12.1H475.6ZM475.6 32.9C480.7 32.9 484.8 28.6 484.8 23.3C484.8 18 480.7 13.8 475.6 13.8H471.3C465.6 13.8 460.7 17.5 458.7 22.8C460 24 461.7 24.7 463.5 24.7H464.6C465.5 22.1 468.3 20.3 471.1 20.3H475.6C477.2 20.3 478.5 21.7 478.5 23.3C478.5 24.9 477.3 26.4 475.6 26.4H463.5C458.7 26.4 454.9 22.4 454.9 17.4V17.1C454.9 12.2 458.7 8.10001 463.5 8.10001H473.8C475.6 8.10001 477 6.69999 477 4.89999C477 3.19999 475.6 1.60001 473.8 1.60001H463.5C455.3 1.60001 448.6 8.49999 448.6 17.1V17.4C448.6 26 455.3 32.9 463.5 32.9H475.6ZM464.1 34.5H463.5C461.5 34.5 459.6 34.2 457.9 33.5V39.7C457.9 41.4 459.2 43 461 43C462.8 43 464.1 41.5 464.1 39.7V34.5ZM475.6 24.7C476.3 24.7 477 24 477 23.3C476.9 22.6 476.4 21.9 475.6 21.9H471.1C469.4 21.9 467.2 23.1 466.4 24.7H475.6Z" fill="#0E3A3B"/>
</svg>
