<svg id="logos" xmlns="http://www.w3.org/2000/svg" viewBox="0 0 860.39 49.03"><path d="M0,41.31l5-6c4.54,3.93,9.14,6.16,15,6.16,5.14,0,8.39-2.44,8.39-6v-.13c0-3.39-1.89-5.22-10.7-7.25C7.58,25.73,1.9,22.75,1.9,14v-.14C1.9,5.76,8.67.14,18.08.14a26.26,26.26,0,0,1,17.2,6l-4.47,6.3C26.55,9.21,22.28,7.52,18,7.52c-4.88,0-7.72,2.5-7.72,5.62v.13c0,3.66,2.16,5.28,11.3,7.45,10,2.44,15.17,6,15.17,13.88v.14c0,8.87-7,14.15-16.93,14.15A29.2,29.2,0,0,1,0,41.31Z" fill="#3b91ff"/><path d="M55.93,28.1V.81h8.33v27c0,8.81,4.54,13.48,12,13.48s11.92-4.4,11.92-13.14V.81H96.5V27.7c0,14.15-8,21.26-20.39,21.26S55.93,41.85,55.93,28.1Z" fill="#3b91ff"/><path d="M118.1.81h18.69c11.1,0,18,6.3,18,15.85v.13c0,10.64-8.53,16.19-19,16.19h-9.42V48.22H118.1Zm18,24.65c6.3,0,10.22-3.52,10.22-8.46v-.14c0-5.55-4-8.46-10.22-8.46h-9.69V25.46Z" fill="#3b91ff"/><path d="M173.49.81h35.14V8.26H181.82V20.59h23.76V28H181.82V40.77H209v7.45H173.49Z" fill="#3b91ff"/><path d="M229,.81h21.13c6,0,10.63,1.76,13.68,4.74a14.38,14.38,0,0,1,3.93,10.23v.13c0,7.79-4.67,12.46-11.24,14.36l12.8,18h-9.89L247.77,31.69H237.34V48.22H229Zm20.52,23.5c6,0,9.75-3.11,9.75-7.92v-.14c0-5.08-3.65-7.85-9.82-7.85H237.34V24.31Z" fill="#3b91ff"/><path d="M366.61.47h7.72l20.86,47.75h-8.81l-4.8-11.45H359.16l-4.87,11.45h-8.54Zm11.92,28.92-8.19-19-8.13,19Z" fill="#3b91ff"/><path d="M408.39,24.65v-.14C408.39,11,418.48,0,432.84,0c8.73,0,14,3.05,18.55,7.38L446,13.54c-3.79-3.52-7.85-5.89-13.27-5.89-9,0-15.64,7.45-15.64,16.73v.13c0,9.28,6.57,16.8,15.64,16.8,5.82,0,9.55-2.3,13.61-6.1l5.35,5.42c-4.94,5.15-10.36,8.4-19.23,8.4C418.68,49,408.39,38.26,408.39,24.65Z" fill="#3b91ff"/><path d="M470.62.81H479V20.52h22.62V.81h8.33V48.22h-8.33v-20H479v20h-8.33Z" fill="#3b91ff"/><path d="M543.89,8.53h-15V.81h38.46V8.53h-15V48.22h-8.4Z" fill="#3b91ff"/><path d="M628.4,8.53h-15V.81h38.47V8.53h-15V48.22H628.4Z" fill="#3b91ff"/><path d="M671.26.81h8.33V48.22h-8.33Z" fill="#3b91ff"/><path d="M702.41.81h8.87L725.7,23.23,740.13.81H749V48.22h-8.33v-34l-15,22.35h-.27L710.6,14.36V48.22h-8.19Z" fill="#3b91ff"/><path d="M771.34.81h35.15V8.26H779.67V20.59h23.77V28H779.67V40.77h27.16v7.45H771.34Z" fill="#3b91ff"/><path d="M823.69,41.31l5-6c4.53,3.93,9.14,6.16,15,6.16,5.15,0,8.4-2.44,8.4-6v-.13c0-3.39-1.9-5.22-10.7-7.25-10.09-2.44-15.78-5.42-15.78-14.15v-.14c0-8.12,6.77-13.74,16.19-13.74a26.26,26.26,0,0,1,17.2,6l-4.47,6.3c-4.27-3.18-8.53-4.87-12.87-4.87-4.87,0-7.72,2.5-7.72,5.62v.13c0,3.66,2.17,5.28,11.31,7.45,10,2.44,15.17,6,15.17,13.88v.14c0,8.87-7,14.15-16.93,14.15A29.18,29.18,0,0,1,823.69,41.31Z" fill="#3b91ff"/><polygon points="335.85 0.81 317.02 29.32 317.02 29.53 317.02 29.53 317.02 48.22 325.42 48.22 325.42 29.32 344.24 0.81 335.85 0.81" fill="#f6632c"/><path d="M300.23,29.53,281.41.81h9.88L304.5,21.74,317.91.81h9.55L308.63,29.32v18.9h-8.4Z" fill="#3b91ff"/></svg>