<svg xmlns="http://www.w3.org/2000/svg" id="Layer_2" data-name="Layer 2" viewBox="0 0 181 88.51"><defs><style>      .cls-1 {        fill: #9d9fa2;      }      .cls-2, .cls-3 {        fill-rule: evenodd;      }      .cls-2, .cls-4 {        fill: #fff;      }      .cls-3, .cls-5 {        fill: #da1f3d;      }    </style></defs><g id="Layer_1-2" data-name="Layer 1"><g><polygon class="cls-5" points="33.37 0 88.51 0 88.51 88.51 33.37 88.51 33.37 0 33.37 0"></polygon><polygon class="cls-1" points="92.49 0 147.63 0 147.63 88.51 92.49 88.51 92.49 0 92.49 0"></polygon><path class="cls-5" d="M0,5.51C0,2.47,2.47,0,5.51,0h77.49c3.04,0,5.51,2.47,5.51,5.51v77.49c0,3.04-2.47,5.51-5.51,5.51H5.51c-3.04,0-5.51-2.47-5.51-5.51V5.51h0Z"></path><polygon class="cls-4" points="18.76 59.86 23.29 59.86 23.29 34 34.49 34 34.49 30.64 7.51 30.64 7.51 34 18.76 34 18.76 59.86 18.76 59.86"></polygon><path class="cls-2" d="M60.1,58.88v-3.55c-2.89,1.17-5.55,1.73-7.93,1.73-5.74,0-8.73-2.8-9.1-8.4h16.9v-1.45c0-4.34-.84-7.52-2.43-9.57-1.63-2.05-4.15-3.08-7.56-3.08s-6.21,1.26-8.4,3.73c-2.19,2.47-3.27,5.6-3.27,9.48s1.12,7.19,3.41,9.38,5.55,3.27,9.85,3.27c2.57,0,5.41-.51,8.54-1.54h0ZM43.2,45.25c.23-2.29.89-4.11,2.01-5.37,1.12-1.31,2.57-1.96,4.39-1.96,3.69,0,5.55,2.24,5.55,6.72v.65l-11.95-.05h0Z"></path><polygon class="cls-4" points="73.9 59.86 78.43 59.86 78.43 23.87 64.34 23.87 64.34 27.23 73.9 27.23 73.9 59.86 73.9 59.86"></polygon><path class="cls-1" d="M92.49,5.51c0-3.04,2.47-5.51,5.51-5.51h77.49c3.04,0,5.51,2.47,5.51,5.51v77.49c0,3.04-2.47,5.51-5.51,5.51h-77.49c-3.04,0-5.51-2.47-5.51-5.51V5.51h0Z"></path><path class="cls-4" d="M100.8,44.25c0-20.44,16.57-37.02,37.02-37.02s37.02,16.57,37.02,37.02-16.57,37.02-37.02,37.02-37.02-16.57-37.02-37.02h0Z"></path><path class="cls-3" d="M122.31,59.49h4.53v-24.74h-13.54v3.36h9.01v21.38h0ZM121.75,29.15h5.65v-5.65h-5.65v5.65h0Z"></path><path class="cls-3" d="M146.9,60.05c3.64,0,6.49-1.12,8.59-3.45,2.05-2.29,3.08-5.46,3.08-9.48s-1.03-7.19-3.08-9.48c-2.1-2.29-4.95-3.45-8.59-3.45s-6.44,1.17-8.54,3.45c-2.05,2.29-3.13,5.46-3.13,9.48s1.03,7.19,3.13,9.48c2.05,2.33,4.9,3.45,8.54,3.45h0ZM146.9,56.69c-2.15,0-3.83-.84-5.04-2.52-1.21-1.68-1.82-4.06-1.82-7.05s.61-5.32,1.82-7.05c1.21-1.68,2.89-2.52,5.04-2.52s3.87.84,5.09,2.52c1.21,1.73,1.82,4.06,1.82,7.05s-.61,5.37-1.82,7.05c-1.21,1.68-2.94,2.52-5.09,2.52h0Z"></path></g></g></svg>