<?xml version="1.0" encoding="UTF-8"?>
<svg id="Layer_1" xmlns="http://www.w3.org/2000/svg" viewBox="0 0 1258.25 164.98">
  <defs>
    <style>
      .cls-1 {
        fill: #4d4d4d;
      }

      .cls-2 {
        fill: #d74f13;
      }
    </style>
  </defs>
  <g>
    <path class="cls-1" d="M70.84,129.61c-3.24.84-6.68,1.49-10.31,1.96-3.63.47-8.08.71-13.33.71-11.74,0-20.47-2.37-26.2-7.13-5.73-4.75-8.59-12.88-8.59-24.39v-44.01H0v-20.46h12.41V9.39h30.26v26.91h28.17v20.46h-28.17v33.42c0,3.3.03,6.18.08,8.65.06,2.46.5,4.67,1.34,6.63.78,1.96,2.16,3.51,4.14,4.66,1.98,1.15,4.86,1.72,8.65,1.72,1.56,0,3.61-.34,6.14-1.01s4.31-1.29,5.31-1.84h2.51v20.63Z"/>
    <path class="cls-1" d="M156.25,65.05h-2.68c-1.28-.45-3.35-.78-6.19-1.01-2.84-.22-5.21-.34-7.11-.34-4.29,0-8.09.28-11.38.84-3.29.56-6.83,1.51-10.62,2.85v63.04h-30.26V36.3h30.26v13.83c6.64-5.7,12.41-9.49,17.31-11.36,4.91-1.87,9.42-2.81,13.55-2.81,1.06,0,2.26.03,3.6.08,1.34.06,2.51.14,3.51.25v28.76Z"/>
    <path class="cls-1" d="M203.59,22.89h-31.94V0h31.94v22.89ZM202.75,130.45h-30.26V36.3h30.26v94.15Z"/>
    <path class="cls-1" d="M328.57,82.07c0,7.77-1.19,14.84-3.56,21.21-2.37,6.37-5.48,11.62-9.34,15.76-4.02,4.36-8.57,7.66-13.65,9.89-5.08,2.23-10.52,3.35-16.33,3.35-5.36,0-9.91-.57-13.65-1.72-3.74-1.15-7.56-2.75-11.47-4.82v39.23h-30.26V36.3h30.26v9.81c4.63-3.69,9.36-6.68,14.19-8.97,4.83-2.29,10.4-3.44,16.7-3.44,11.72,0,20.83,4.3,27.34,12.91,6.5,8.61,9.75,20.43,9.75,35.46ZM297.46,82.7c0-9.15-1.56-15.79-4.68-19.92-3.12-4.13-8.06-6.2-14.8-6.2-2.84,0-5.77.43-8.78,1.3-3.01.86-5.88,2.11-8.62,3.72v47.29c2.01.78,4.15,1.29,6.44,1.51,2.29.22,4.54.33,6.77.33,7.97,0,13.91-2.33,17.82-6.99s5.86-11.68,5.86-21.05Z"/>
    <path class="cls-1" d="M379.77,130.45h-30.26V0h30.26v130.45Z"/>
    <path class="cls-1" d="M500.05,88.95h-69.08c.45,7.38,3.26,13.02,8.43,16.93,5.17,3.91,12.78,5.87,22.84,5.87,6.37,0,12.55-1.15,18.53-3.44,5.98-2.29,10.7-4.75,14.17-7.38h3.35v24.23c-6.82,2.74-13.25,4.72-19.28,5.95-6.04,1.23-12.72,1.84-20.04,1.84-18.89,0-33.37-4.25-43.43-12.74-10.06-8.5-15.09-20.59-15.09-36.3s4.76-27.85,14.29-36.93c9.53-9.08,22.59-13.62,39.19-13.62,15.31,0,26.83,3.87,34.54,11.61s11.57,18.88,11.57,33.41v10.56ZM470.04,71.26c-.17-6.32-1.73-11.07-4.69-14.25-2.96-3.19-7.57-4.78-13.83-4.78-5.81,0-10.59,1.51-14.34,4.53-3.75,3.02-5.84,7.85-6.29,14.5h39.15Z"/>
    <path class="cls-1" d="M660.13,100.6c0,9.72-4.36,17.56-13.08,23.52-8.72,5.95-20.65,8.93-35.8,8.93-8.38,0-15.98-.78-22.8-2.35-6.82-1.56-12.3-3.3-16.43-5.2v-24.81h2.77c1.51,1.06,3.26,2.22,5.24,3.48,1.98,1.26,4.79,2.61,8.42,4.06,3.13,1.29,6.68,2.39,10.65,3.31,3.97.92,8.22,1.38,12.74,1.38,5.92,0,10.31-.66,13.16-1.97,2.85-1.31,4.28-3.26,4.28-5.83,0-2.29-.84-3.95-2.52-4.99s-4.86-2.03-9.56-2.98c-2.24-.5-5.27-1.05-9.1-1.63-3.83-.59-7.31-1.3-10.44-2.14-8.55-2.24-14.9-5.71-19.03-10.44-4.14-4.72-6.2-10.61-6.2-17.65,0-9.05,4.29-16.58,12.87-22.59,8.58-6.01,20.3-9.01,35.17-9.01,7.04,0,13.79.71,20.25,2.14,6.45,1.43,11.5,2.95,15.13,4.57v23.81h-2.6c-4.47-3.07-9.57-5.58-15.3-7.5-5.73-1.93-11.53-2.89-17.4-2.89-4.86,0-8.96.67-12.28,2.01-3.33,1.34-4.99,3.24-4.99,5.7,0,2.24.75,3.94,2.26,5.11s5.06,2.35,10.65,3.52c3.07.62,6.38,1.22,9.93,1.8,3.55.59,7.11,1.33,10.69,2.22,7.93,2.07,13.8,5.32,17.61,9.77,3.8,4.44,5.7,9.99,5.7,16.64Z"/>
    <path class="cls-1" d="M775.55,83.41c0,15.48-4.51,27.68-13.54,36.59-9.03,8.91-21.7,13.37-38.02,13.37s-28.99-4.46-38.02-13.37c-9.03-8.91-13.54-21.11-13.54-36.59s4.54-27.83,13.62-36.72c9.08-8.89,21.73-13.33,37.93-13.33s29.13,4.47,38.1,13.41c8.97,8.94,13.46,21.15,13.46,36.63ZM738.41,106.3c1.96-2.4,3.42-5.29,4.4-8.68.98-3.38,1.47-8.06,1.47-14.04,0-5.53-.5-10.17-1.51-13.92-1.01-3.74-2.4-6.73-4.19-8.97-1.79-2.29-3.94-3.91-6.46-4.86s-5.23-1.43-8.13-1.43-5.49.39-7.75,1.17c-2.26.78-4.43,2.35-6.5,4.69-1.84,2.18-3.31,5.17-4.4,8.97-1.09,3.8-1.64,8.58-1.64,14.33,0,5.14.47,9.6,1.43,13.37.95,3.77,2.35,6.8,4.19,9.09,1.79,2.18,3.93,3.77,6.41,4.78,2.49,1.01,5.32,1.51,8.51,1.51,2.74,0,5.35-.46,7.84-1.38,2.49-.92,4.6-2.47,6.33-4.65Z"/>
    <path class="cls-1" d="M826.59,130.45h-30.26V0h30.26v130.45Z"/>
    <path class="cls-1" d="M911.15,120.47c-1.62,1.23-3.63,2.71-6.04,4.44-2.4,1.73-4.67,3.1-6.79,4.11-2.96,1.34-6.04,2.33-9.22,2.98-3.18.64-6.68.96-10.48.96-8.94,0-16.43-2.77-22.47-8.3-6.04-5.53-9.05-12.6-9.05-21.21,0-6.87,1.54-12.49,4.61-16.85,3.07-4.36,7.43-7.8,13.08-10.31,5.59-2.52,12.52-4.3,20.79-5.37,8.27-1.06,16.85-1.84,25.74-2.35v-.5c0-5.2-2.13-8.79-6.37-10.77-4.25-1.98-10.51-2.98-18.78-2.98-4.98,0-10.28.88-15.93,2.64-5.65,1.76-9.7,3.12-12.16,4.07h-2.77v-22.72c3.19-.84,8.37-1.83,15.55-2.98,7.18-1.15,14.38-1.72,21.59-1.72,17.16,0,29.55,2.64,37.18,7.92,7.63,5.28,11.44,13.57,11.44,24.86v64.05h-29.93v-9.98ZM911.15,105.82v-19.55c-4.08.34-8.5.8-13.25,1.38-4.75.58-8.36,1.27-10.82,2.05-3.02.95-5.32,2.33-6.92,4.14-1.59,1.81-2.39,4.19-2.39,7.14,0,1.95.17,3.54.5,4.76.34,1.23,1.17,2.4,2.52,3.51,1.29,1.12,2.82,1.94,4.61,2.46,1.79.53,4.58.79,8.38.79,3.02,0,6.08-.61,9.18-1.84,3.1-1.23,5.83-2.84,8.17-4.85Z"/>
    <path class="cls-1" d="M1036.21,65.05h-2.68c-1.28-.45-3.35-.78-6.19-1.01s-5.21-.34-7.11-.34c-4.29,0-8.08.28-11.38.84s-6.83,1.51-10.62,2.85v63.04h-30.26V36.3h30.26v13.83c6.64-5.7,12.41-9.49,17.31-11.36,4.91-1.87,9.42-2.81,13.55-2.81,1.06,0,2.26.03,3.6.08s2.51.14,3.51.25v28.76Z"/>
  </g>
  <g>
    <polygon class="cls-2" points="1128.75 20.54 1091.83 143.08 1052.33 143.08 1089.26 20.54 1128.75 20.54"/>
    <polygon class="cls-2" points="1183.51 20.54 1146.59 143.08 1106.27 143.08 1143.19 20.54 1183.51 20.54"/>
    <polygon class="cls-2" points="1234.71 20.54 1197.79 143.08 1161.04 143.08 1197.96 20.54 1234.71 20.54"/>
    <polygon class="cls-2" points="1258.25 109.35 1223.13 109.35 1240.53 51.58 1252.8 91.59 1258.25 109.35"/>
  </g>
</svg>