<svg width="117" height="40" viewBox="0 0 117 40" fill="none" xmlns="http://www.w3.org/2000/svg">
<path d="M31.6345 4.35912L24.3872 0.35748C23.5278 -0.117462 22.5061 -0.117462 21.6467 0.347375C20.7873 0.812212 20.2717 1.66105 20.2717 2.60083V23.5387C20.2717 27.6212 17.2066 31.0266 13.158 31.8148C12.8715 30.9963 12.7187 30.1172 12.7187 29.1976V17.5362C12.7187 16.6167 12.1936 15.7577 11.3628 15.2929L4.11545 11.2913C3.25608 10.8163 2.23438 10.8163 1.375 11.2811C0.515625 11.746 0 12.5948 0 13.5346V23.5387C0 29.5007 5.10851 34.3411 11.3819 34.3411C11.4583 34.3411 11.5347 34.3411 11.6111 34.3411C13.5399 37.7061 17.3021 40 21.6181 40C27.8915 40 33 35.1495 33 29.1976V6.60247C32.9905 5.6829 32.4748 4.82396 31.6345 4.35912ZM2.48264 23.5387V13.5346C2.48264 13.4437 2.52083 13.3729 2.60677 13.3325C2.64497 13.3123 2.69271 13.3022 2.7309 13.3022C2.7691 13.3022 2.81684 13.3123 2.85504 13.3325L10.1024 17.3341C10.1788 17.3746 10.2266 17.4554 10.2266 17.5362V29.1976C10.2266 30.1475 10.3602 31.067 10.599 31.9462C6.06337 31.5723 2.48264 27.9445 2.48264 23.5387ZM30.5078 29.1976C30.5078 33.8561 26.5165 37.6354 21.6181 37.6354C18.5816 37.6354 15.8984 36.1904 14.2943 33.9773C19.1641 32.7546 22.7639 28.5306 22.7639 23.5286V2.60083C22.7639 2.50988 22.8021 2.43914 22.888 2.38862C22.974 2.33809 23.0599 2.33809 23.1363 2.38862L30.3837 6.39026C30.4601 6.43068 30.5078 6.51152 30.5078 6.59236V29.1976Z" fill="#1E1E21"/>
<path d="M50.536 25.192C47.736 25.192 46.232 23.48 46.232 20.76V14.36H48.056V20.808C48.056 22.664 48.984 23.688 50.472 23.688H50.632C52.12 23.688 53.016 22.648 53.016 20.808V14.36H54.824V20.76C54.824 23.48 53.336 25.192 50.536 25.192ZM57.2328 14.36H59.1208L62.9928 20.232C63.6008 21.144 63.8888 21.656 64.2888 22.648L64.5128 22.6C64.4008 22.024 64.3208 21.304 64.3208 20.728L64.3048 14.36H66.0808V25H64.2408L60.1288 18.744C59.5528 17.864 59.2968 17.32 59.0088 16.584L58.8008 16.632C58.8968 17.16 59.0088 17.96 59.0088 18.76V25H57.2328V14.36ZM68.5921 14.36H73.2641C75.3601 14.36 76.9761 15.288 76.9761 17.288C76.9761 18.712 75.9681 19.752 74.7521 19.832V20.056C76.1921 20.104 76.6721 20.84 76.6721 22.28C76.6721 23.496 76.8961 24.312 77.3121 24.936V25H75.3281C75.0721 24.44 74.9121 23.736 74.9121 22.664C74.9121 21.224 74.3521 20.744 73.0721 20.744H70.3841V25H68.5921V14.36ZM73.1681 19.32C74.3681 19.32 75.0881 18.776 75.0881 17.544C75.0881 16.312 74.3681 15.832 73.1681 15.832H70.3841V19.32H73.1681ZM86.5113 25L85.4233 22.184H81.1193L80.0953 25H78.2233L82.0793 14.36H84.2873L88.4153 25H86.5113ZM81.5513 20.792H84.9753L83.7273 17.512C83.5353 17 83.4073 16.584 83.3113 16.072H83.0713C83.0073 16.584 82.8793 17 82.7033 17.512L81.5513 20.792ZM87.5213 14.36H89.4413L91.6173 20.184C91.9533 21.112 92.2733 22.216 92.4813 23.208H92.7053C92.8813 22.232 93.2173 21.08 93.5693 20.152L95.7292 14.36H97.6333L93.6493 25H91.5213L87.5213 14.36ZM100.806 23.496H106.47V25H98.9984V14.36H106.39V15.864H100.806V18.856H105.894V20.312H100.806V23.496ZM110.275 23.512H115.891V25.016H108.467V14.376H110.275V23.512Z" fill="#131415"/>
</svg>
